<?xml version="1.0" standalone="no"?><!DOCTYPE svg PUBLIC "-//W3C//DTD SVG 1.1//EN" "http://www.w3.org/Graphics/SVG/1.1/DTD/svg11.dtd"><svg t="1593592369024" class="icon" viewBox="0 0 1024 1024" version="1.1" xmlns="http://www.w3.org/2000/svg" p-id="1180" xmlns:xlink="http://www.w3.org/1999/xlink" width="200" height="200"><defs><style type="text/css"></style></defs><path d="M553.531 922.335h-77.1c-29.133 0-52.835-23.701-52.835-52.835v-52.036A315.23 315.23 0 0 1 364 793.454l-38.064 38.064c-9.979 9.979-23.247 15.475-37.36 15.475-14.112 0-27.38-5.496-37.359-15.475L196.699 777c-20.6-20.6-20.6-54.119 0-74.719l36.798-36.798a315.238 315.238 0 0 1-25.175-59.116H154.5c-29.133 0-52.835-23.701-52.835-52.835v-77.1c0-29.133 23.702-52.835 52.835-52.835h52.036a315.096 315.096 0 0 1 24.01-59.596l-38.064-38.064c-20.6-20.6-20.6-54.119 0-74.719L247 196.699c9.979-9.979 23.247-15.475 37.36-15.475s27.381 5.496 37.36 15.475l36.798 36.798a315.238 315.238 0 0 1 59.116-25.175V154.5c0-29.133 23.701-52.835 52.835-52.835h77.101c29.133 0 52.835 23.702 52.835 52.835v52.036a315.123 315.123 0 0 1 59.596 24.01l38.064-38.063c9.979-9.979 23.247-15.475 37.36-15.475 14.112 0 27.38 5.496 37.359 15.475L827.302 247c9.979 9.979 15.475 23.247 15.475 37.36s-5.496 27.381-15.475 37.36l-36.798 36.798a315.332 315.332 0 0 1 25.175 59.116H869.5c29.133 0 52.835 23.701 52.835 52.835v77.101c0 29.133-23.701 52.835-52.835 52.835h-52.036a315.256 315.256 0 0 1-24.01 59.596l38.064 38.064c20.6 20.6 20.6 54.119 0 74.719L777 827.302c-9.979 9.979-23.247 15.475-37.359 15.475-14.113 0-27.381-5.496-37.36-15.475l-36.798-36.798a315.266 315.266 0 0 1-59.116 25.175V869.5c-0.001 29.133-23.702 52.835-52.836 52.835zM355.865 729.446l17.137 10.476a264.72 264.72 0 0 0 81.563 32.795l20.045 4.395V869.5c0 1.004 0.818 1.822 1.822 1.822h77.1a1.825 1.825 0 0 0 1.822-1.822v-93.322l19.521-4.712a264.86 264.86 0 0 0 80.863-34.502l17.281-11.067 65.333 65.333c0.132 0.132 0.534 0.534 1.289 0.534 0.754 0 1.156-0.402 1.288-0.534l54.519-54.519a1.823 1.823 0 0 0 0-2.577l-66.001-65.999 10.476-17.137a264.734 264.734 0 0 0 32.795-81.562l4.395-20.045H869.5a1.825 1.825 0 0 0 1.822-1.822v-77.101a1.824 1.824 0 0 0-1.822-1.822h-93.323l-4.712-19.522a264.823 264.823 0 0 0-34.5-80.863l-11.067-17.281 65.333-65.332c0.132-0.132 0.534-0.534 0.534-1.289 0-0.754-0.401-1.156-0.534-1.288l-54.519-54.519a1.733 1.733 0 0 0-1.288-0.534c-0.755 0-1.157 0.402-1.289 0.534l-65.999 65.999-17.137-10.475a264.734 264.734 0 0 0-81.562-32.795l-20.045-4.394V154.5a1.825 1.825 0 0 0-1.822-1.822h-77.101a1.824 1.824 0 0 0-1.822 1.822v93.323l-19.521 4.712a264.853 264.853 0 0 0-80.863 34.501l-17.281 11.067-65.332-65.333c-0.132-0.132-0.534-0.534-1.289-0.534-0.754 0-1.156 0.402-1.288 0.534l-54.519 54.519a1.823 1.823 0 0 0 0 2.577l65.999 66-10.475 17.137a264.72 264.72 0 0 0-32.795 81.563l-4.394 20.045H154.5a1.825 1.825 0 0 0-1.822 1.822v77.1c0 1.004 0.818 1.822 1.822 1.822h93.323l4.712 19.521a264.812 264.812 0 0 0 34.501 80.863l11.067 17.281-65.333 65.333a1.825 1.825 0 0 0 0 2.577l54.519 54.519c0.132 0.132 0.534 0.534 1.288 0.534 0.755 0 1.156-0.402 1.289-0.534l65.999-66.003z" fill="" p-id="1181"></path><path d="M512 652c-77.196 0-140-62.804-140-140s62.804-140 140-140 140 62.804 140 140-62.804 140-140 140z m0-227.027c-47.987 0-87.027 39.04-87.027 87.027 0 47.986 39.04 87.027 87.027 87.027 47.986 0 87.027-39.041 87.027-87.027 0-47.987-39.041-87.027-87.027-87.027z" fill="" p-id="1182"></path></svg>