<?xml version="1.0" standalone="no"?><!DOCTYPE svg PUBLIC "-//W3C//DTD SVG 1.1//EN" "http://www.w3.org/Graphics/SVG/1.1/DTD/svg11.dtd"><svg t="1593596856150" class="icon" viewBox="0 0 1024 1024" version="1.1" xmlns="http://www.w3.org/2000/svg" p-id="1304" xmlns:xlink="http://www.w3.org/1999/xlink" width="200" height="200"><defs><style type="text/css"></style></defs><path d="M89.298824 96.376471c0-16.564706 13.522824-30.117647 30.117647-30.117647h256c16.564706 0 30.117647 13.552941 30.117647 30.117647v256c0 16.624941-13.552941 30.117647-30.117647 30.117647h-256c-16.594824 0-30.117647-13.492706-30.117647-30.117647V96.376471z m30.117647 346.352941h256c49.814588 0 90.352941-40.508235 90.352941-90.352941V96.376471c0-49.784471-40.538353-90.352941-90.352941-90.352942h-256c-49.814588 0-90.352941 40.568471-90.352942 90.352942v256c0 49.844706 40.538353 90.352941 90.352942 90.352941zM943.887059 352.376471c0 16.624941-13.552941 30.117647-30.117647 30.117647h-256c-16.594824 0-30.117647-13.492706-30.117647-30.117647V96.376471c0-16.564706 13.522824-30.117647 30.117647-30.117647h256c16.564706 0 30.117647 13.552941 30.117647 30.117647v256z m-30.117647-346.352942h-256c-49.814588 0-90.352941 40.568471-90.352941 90.352942v256c0 49.844706 40.538353 90.352941 90.352941 90.352941h256c49.814588 0 90.352941-40.508235 90.352941-90.352941V96.376471c0-49.784471-40.538353-90.352941-90.352941-90.352942zM943.887059 905.818353c0 16.564706-13.552941 30.117647-30.117647 30.117647h-256c-16.594824 0-30.117647-13.552941-30.117647-30.117647v-256c0-16.594824 13.522824-30.117647 30.117647-30.117647h256c16.564706 0 30.117647 13.522824 30.117647 30.117647v256z m-30.117647-346.352941h-256c-49.814588 0-90.352941 40.538353-90.352941 90.352941v256c0 49.814588 40.538353 90.352941 90.352941 90.352941h256c49.814588 0 90.352941-40.538353 90.352941-90.352941v-256c0-49.814588-40.538353-90.352941-90.352941-90.352941zM89.298824 649.818353c0-16.594824 13.522824-30.117647 30.117647-30.117647h256c16.564706 0 30.117647 13.522824 30.117647 30.117647v256c0 16.564706-13.552941 30.117647-30.117647 30.117647h-256c-16.594824 0-30.117647-13.552941-30.117647-30.117647v-256z m30.117647 346.352941h256c49.814588 0 90.352941-40.538353 90.352941-90.352941v-256c0-49.814588-40.538353-90.352941-90.352941-90.352941h-256c-49.814588 0-90.352941 40.538353-90.352942 90.352941v256c0 49.814588 40.538353 90.352941 90.352942 90.352941z" p-id="1305"></path></svg>